<svg xmlns="http://www.w3.org/2000/svg" aria-label="ФабрикантЪ" viewBox="0 0 2144 795"><path fill="currentColor" fill-rule="evenodd" d="M154.1 1a136 136 0 0 0-46.3 20c-8.3 5.3-10 7.2-7.8 8.6 3.9 2.4 14.9 29.1 16.5 40 .6 3.8.4 4.1-3.5 6.8-9 6.4-9.1 10.7-.2 10.7h6l.5 7c.4 4.6 1.3 8.3 2.6 10.3l4.5 7.8c2.8 5.3 4.5 5.9 15.8 5.9h7l5.1 5.4c5.9 6 12.3 9 24 10.7 4 .6 9.7 1.7 12.8 2.5 3 .8 8.3 1.4 11.7 1.4 5.3 0 6.3-.3 7.3-2.2 1.9-3.5 1.2-12.8-1.1-16-2-2.8-2.7-6.8-1.1-6.8.5 0 1.1-1.5 1.4-3.2l1.2-5.5c.5-1.6 0-2.8-1.7-4.6l-2.4-2.4 2.3-1.7c3.2-2.3 3-6-.4-8.2a68 68 0 0 1-7-5.3c-4-3.2-4.3-4-4.3-8.1a12 12 0 0 0-2.5-8c-1.3-1.8-2.3-3.6-2-4s3-1.9 6.4-3.5c9-4.2 8-6.4-4-8.8l-6.2-1.3-3.9-11.4A111 111 0 0 1 178 6.6c0-2.5-.5-4.8-1-5.2-2-1.1-17.2-1.3-22.9-.3M416.3 80a10 10 0 0 0-4.4 6c-1 3.4-1.6 4-4 4-8.4 0-10.7 12.9-3.4 18.7q7.4 6-1.7 1.5l-7-3.3c-3-1.4-18-.3-19 1.4-.4.8-3.2 3.2-6 5.3-8.5 6-9.8 8-9.8 15.1 0 10.1-1.7 16-6.7 22.4-5.5 7.3-5.5 7.3-8.8 4.8-1.4-1.2-3-1.8-3.4-1.3l-4 5c-1.7 2.4-8.5 8.3-15 13.3s-13.5 11-15.5 13.2l-3.5 4.2-7.3-.7a274 274 0 0 1-40.3-8.1c-7.3-2.3-8.8-3.2-17.5-11-10.6-9.8-12.1-10.7-20.8-13-9.3-2.4-11-3.4-12.7-7.8-2-5.1-3-4-4.9 5.8a368 368 0 0 0-6.3 72.4c.7 16.8 2.7 26.6 11 53.8 7.8 25.4 13.5 47.8 12.4 49-.2.1-1.9-.2-3.8-.7-8.3-2.4-22 .5-33.7 7.2-3 1.6-5.5 2.8-5.8 2.6a837 837 0 0 0 10-66c2-18 2-36.7.3-43.3a268 268 0 0 0-18.2-33c-24.3-40.3-34.4-60.9-34.6-70.9q0-3.1-3-5.5c-1.7-1.3-3.2-2.1-3.5-1.9s-1.5 4.2-2.8 8.7a90 90 0 0 1-2.8 8.6A273 273 0 0 1 75.7 155c-9 3-12 5.7-19.5 18.3-6.6 11.2-6.8 11.8-9.2 31.2-.6 5-3.3 18.9-6 31l-7 32.4c-1.2 5.8-4.3 16.2-7 23.3-10 25.8-13.2 38-22.5 87.8C0 402 0 403.5 1.6 404.7q1.7 1.2 2.5 1.3c1.7 0 1.6 3.4-.3 12-1.7 8-1.8 10.5-1 18.4 1.2 11 5.6 25.3 8.6 28.2 2 1.9 3 10.7 16.9 139.5A7561 7561 0 0 0 44 743.7c1 2.4 4.3 3 6.8 1.5 1-.7-.2-17.4-6.2-83.8-8-87-15.7-175.4-17.7-201.1-1.1-14-1-15.4.4-17.1a6 6 0 0 0 1.7-3.4c0-1.7 7.3-8.8 9-8.8 1.2 0 3 4.3 3 7.2 0 1-.8 3.6-1.7 5.5-1.6 3.4-1.6 3.6.3 5 6.3 4.6 13-3.2 12-14-.3-4.6-1.2-7-3.6-10.4l-3.2-4.5 1.8-3.5c1-1.9 3.2-4.2 4.7-5.1 3.2-2 3.4-2.6 4.1-15.2s4.7-32.6 9.7-49.2a454 454 0 0 0 8.3-28.8c.3-1.4 2.6-5.7 5-9.5a100 100 0 0 0 9.7-22.3c2.8-8.4 5.3-15.1 5.5-14.9s1.1 4.8 2 10.1c.8 6 2.4 11.7 3.9 14.8l2.5 5-5.6 17.2c-11 34-19.6 67.4-23.3 90.6a330 330 0 0 0-4.1 42.5c-.5 9.4-2.1 24.9-3.5 34.4a250 250 0 0 0-2.5 23v5.7l11.5 5.5 11.5 5.4-.6 18a325 325 0 0 1-1 19.2c-.1.6.1 12.3.6 26 3.2 89.2 3.3 92.6 1 99.3-1.6 4.3-2 7.6-1.7 10.7.4 4.1-1.8 16.6-4 22.3a97 97 0 0 0-2.7 10.7 116 116 0 0 1-5.6 17.7c-5 12-6.3 17.7-5.5 24.2 1 8.1 2 9 9.3 7.7 10.2-2 18.9-6.7 22-12 5.7-9.7 11.2-16.2 14-16.5q2.6-.2 6.4-5.3c3.8-5 3.8-5 3.3-12.4s-.5-7.5 3.4-12.5c3.5-4.5 4.2-6.4 6-16.1a3370 3370 0 0 0 14.6-94.5 595 595 0 0 1 10.5-56.5c.5-2.7 2.9-8.7 5.2-13.3 3.8-7.2 4.6-8.2 6.8-8 2.1.3 2.6 1 3.3 5.3a1359 1359 0 0 1 11.8 61c7.7 44.4 12.5 68.5 19.4 97.5 7.5 31.4 10.7 44.4 11 44.8s19 3.1 19 2.8c1.5-4.2 2.7-5.6 5.2-5.6 3.2 0 5 1.2 14.9 9.1 3.8 3.1 7.8 6.1 9 6.7 2.2 1.1 25.4 3.2 36.2 3.2 4.8 0 6.4-.4 6.9-1.6 1-2.6-2.5-6-16.2-15.8-11.2-8-14-10.5-20.2-18.7-4-5.2-7.7-11.2-8.3-13.4l-5-18.5a337 337 0 0 1-9.5-59.6c-1.9-21.3-1.9-35 0-52.4 2-17.7 1.9-24.8-.2-32.6a19 19 0 0 1-1.2-6.7l19.1-10.2c17.8-9.3 18.7-9.8 18.3-12.4-5-29-7.3-42.1-10.6-59.6-2.2-11.6-5-30.5-6.4-42.1-4.7-41.7-8.9-59-18.4-76.9-3.4-6.6-3.7-7.7-4.1-18-.8-19.3-.5-31.5 1.5-50.5l1.9-18.5 8.5 1.8a224 224 0 0 0 57.1 1.3c12.9-2.4 19.7-6.2 25-13.8 2.4-3.5 9.2-12.2 15-19.3a186 186 0 0 0 23.1-32.8l3-6-3.2-3.3c-3.6-3.7-3.4-5.3.7-7.2l7.5-3.7 4.7-2.4 4.2 4c3.7 3.3 13 7.9 16 7.9q1 0 0 2c-.5 1-1 3.2-1 5 0 1.6-.4 3-1 3s-1 1.3-1 2.9c0 2.8.2 2.9 8.3 4.4q25 5 49.8-.4c4.2-1 4.9-1.4 4.9-3.4 0-1.3-.4-2.7-1-3s-1-1.7-1-3-.8-4.6-1.9-7.2c-2.9-7.5-3.3-14-1.6-26.4.9-6.3 1.8-14.5 2.2-18.2.5-5.2 1-7 2.5-7.8a3 3 0 0 0 1.6-3.2c-.2-1.8.3-2.3 3-2.7 1.7-.3 4.1-1.3 5.3-2.3 2.3-2 2.2-3-1-11.7a83 83 0 0 1-2.6-8.4c-.3-1.6-1.9-4.1-3.5-5.7-2.4-2.4-3.7-2.9-7.8-2.9-4.7 0-5.3-.3-8.3-4.1-4.9-6.2-8.7-7.5-15.7-5.3-5.2 1.7-5.7 1.7-8.4 0a12 12 0 0 0-12.5.4m21.3 3.2c-3.8 2-4.2 2-8.5.4-8.7-3-11.9-1.8-13 5.2-.6 3.4-1 3.7-4.1 4q-6.8.8-7 6.2c0 3.1 1.6 4.8 5.7 6q2.7.8 2.4 2.1l-.8 3c-.8 3 4.1 5.2 13.2 5.9 9.3.7 11.5 1.9 11.5 6q0 6 3 6c2.3 0 4-2.8 4-6.4 0-1.4.4-2.6 1-2.6q2.4.2 1.5 10.7-1 11.6 4 10c1.6-.7 1.7-1.7 1-10.2-.7-11 .1-12.2 6.2-9l3.5 2 2-2.8c1.1-1.6 3-2.7 4.2-2.7 4 0 5.8-3.1 4.7-8.1-.5-2.4-1.3-6.1-1.6-8.2-1-6.3-3.6-8-10.6-7.3l-6 .7-2.4-5.5c-3.5-8-6.8-9.2-14-5.4m-241.8 20c-3.2 3.9-3.5 4-7.6 3.3-3.3-.5-4.7-1.4-6.3-3.9l-2-3.1.6 3.5c1.8 9.7 14.8 12.8 23.5 5.4 5.6-4.7 4.9-9.4-1.4-9.4-2.7 0-4 .8-6.8 4.1m194.7 16.7-2.9 2.7 6.6.5c3.6.3 7.3 1.1 8.3 1.9 1.8 1.5 2.1 5.2.6 6.7q-1.2 1.1.5 2.4c1.7 1.4 2 6.6.4 7.5-.6.4-.8 2.2-.4 4.5q.6 3.8-.6 6.2a17 17 0 0 0-1.5 6.2q-.2 3.9-2 5.4c-1.8 1.3-1.8 1.4 0 2.8 2.4 1.7 3.7 1.8 7 .2 3.3-1.5 4-4.3 3.2-12.7l-1.5-16.3c-1-10.9-3.2-15.6-8.5-18.9-4.2-2.5-5.8-2.4-9.2.8M151 144.9c0 .4 1.6 4.6 3.5 9.2 1.9 4.7 3.5 9 3.5 9.8 0 1.7 1.1 1.5 8.5-1.4 3.6-1.4 7.1-2.4 8-2 .7.2 3 0 4.9-.5 3-.8 4.3-.6 7.7 1.1 2.3 1.2 4.5 1.8 4.9 1.3.7-.8 4.3-11.7 5.3-16 .7-3-1.3-3-10.4.3-7.8 2.8-8.6 2.8-21.4-.5-8.2-2.1-14.5-2.7-14.5-1.3m699.5 65.8c-10.5 14-10 12.8-7 16.7 7 9.4.7 17-31.6 38.3-16 10.5-19.6 13.3-25.4 20C752 326 738.2 382.3 738 483.5c0 32.7.7 43 4.2 61.4 7.5 38.7 27.9 72.3 51.1 84.2 15.4 7.8 35 8 51 .7 26.9-12.5 48.2-50 55-96.8 2-14.2 1.7-57.2-.5-72.3-8.3-55.8-31.8-91.6-64.6-98.2a57 57 0 0 0-50.4 14.7c-4.8 4.6-4.7 3 .2-9.5 9.4-23.6 19.2-34.5 46.1-51.1 34.1-21.1 45.7-32 56.3-53.2l3.5-7-14.8-28a457 457 0 0 0-15.7-28.1c-.4-.2-4.4 4.5-8.8 10.3m-734-1.8c1.5 13 .4 11.8 11.3 13.7l12 2.2q2.2.5 2.2-1c0-.9 1.2-2.5 2.6-3.6 2.1-1.7 2.5-2.5 2-5-.5-1.7-1.5-3.5-2.4-4-2-1-26-8.1-27.5-8.1-.5 0-.7 2.4-.3 5.8M405 252.2v16.3l6 2.7 6 2.7v10.8l-18.7.6a109 109 0 0 0-26.8 2.7 83 83 0 0 0-54.7 45.5c-16 31.6-17.7 85.1-4.2 126.4 14.6 44.6 44 79.4 95.6 113.6l8.8 5.8v8.8c0 11.3-.8 13.2-7 16.6l-5 2.8V640h67v-32.5l-5-2.8c-6.2-3.5-7-5.4-7-16.5v-8.7l12.5-8.4c23.9-16 45.3-34.6 59-51.1a184 184 0 0 0 42.2-127.5q-3.1-70.6-46.6-96c-14-8.4-29.2-11.5-54.7-11.5h-12.7l.6-5.1c.8-6.2 1.6-7.3 7.3-9.5l4.4-1.7V236h-67zM1941 287v39h22.7l.7-7c1.6-17.7 2.6-19 14.2-19h6.4v144c0 88.8-.4 144.8-1 146.4q-.7 2.5-6 4.3l-5 1.8V628l48.3-.4c52.8-.4 53.4-.4 67.5-6.8a94 94 0 0 0 45.2-49.4 143 143 0 0 0 9.4-58c-.2-35.8-7.8-62.5-25.4-89.5-16.7-25.4-50.8-50.5-84.2-62l-6.8-2.4V324c0-19.7.4-36.8.9-38.1s3.2-3.6 6-5.1l5.1-2.8v-30h-98zM385.5 340.5c-19.4 3.5-32.4 17-37.2 38.5-2.4 11.3-2.2 33.7.5 46.6a132 132 0 0 0 36.7 66.3c9 9.4 29.3 27.1 31 27.1.3 0 .5-40.5.5-90v-90h-12.2c-6.8.1-15.5.8-19.3 1.5m74.5 88.4c0 72 .3 90 1.3 89.5 4.1-2.5 20.6-16.6 28.5-24.4q43.5-43.3 40.9-98.5c-1.5-30.4-11.6-46.9-33-53.7a82 82 0 0 0-22-2.5l-15.7-.6zm538-67.2a74 74 0 0 0-29.9 14.3l-5.1 4v-12h-53v15.4c0 17.1-.6 15.7 7.3 17 2.8.5 4 1.4 4.7 3.2 1.1 3 1.2 352.4.1 356.4-.6 2.2-1.3 2.5-5.9 2.8l-5.2.3V795h65v-32h-5.5c-5 0-5.6-.2-6.5-2.6-.6-1.5-1-26.5-1-64V635h8.8c47-.1 88.1-41.3 101.1-101.5 11.5-52.9 3.2-110.9-20.7-144.4-14.3-20.2-35-30.6-54.2-27.4m515.5.3a80 80 0 0 0-42.5 20.6l-8 7.6v54.9l10.7-.3 10.6-.3 1.6-6c5-18.3 15.6-27.4 32.6-28.3 6.8-.4 9 0 13.3 1.8a28 28 0 0 1 16 21c1 3.8.9 4-1.7 4.6a252 252 0 0 0-37 11.3 94 94 0 0 0-57.6 73.5 182 182 0 0 0 0 48.6c5.5 29.3 19.7 51 39.5 60.4 6 2.8 7.3 3 18 3 11.1.1 11.8 0 18.4-3.3q7-3.4 14.3-10.6l7.3-7.2V628h51.1l-.3-15.1-.3-15.2-4.6-1.3c-4.2-1.3-4.7-1.7-5.3-5.1-.3-2.1-.6-38.1-.6-80 0-78.5-.4-88.7-4-103a58 58 0 0 0-43.2-44.7c-8.4-2-20.6-2.8-28.3-1.6M638 364.5a81 81 0 0 0-42.2 22.3l-4.8 4.6V447h20.9l1.6-5.7c3.7-13.5 9.2-21 18.8-26a42 42 0 0 1 25.2-2.3c8.6 2.4 16.5 12 18.1 21.9.6 3.8.5 4-2.2 4.7-19.7 4.5-30.6 8-41.9 13.7-32.8 16.4-49.7 42.4-53.6 82.4-4.6 47.2 15.3 90 46.4 99.5q24.5 7.5 45.5-13.3l7.2-7.2V630h50v-30.8l-4.5-1c-3.9-1-4.5-1.6-5-4.5-.3-1.7-.6-40.3-.8-85.7-.3-81.1-.4-82.7-2.6-92.4-5.1-22.8-15.4-37.6-31.6-45.5a76 76 0 0 0-44.5-5.6m450 19.5v16h4.8c2.6 0 5.3.5 6 1.2 1.7 1.7 1.7 191.9 0 193.6-.7.7-3.4 1.2-6 1.2h-4.8v32h66v-32h-5.2a19 19 0 0 1-6.7-.9c-1-.7-1.4-6-1.8-24.7l-.5-23.9L1172 497l32.4-49.4.3 71.6c.1 45.1-.1 72.6-.8 74.2-.9 2.4-1.5 2.6-6.5 2.6h-5.5v32h66v-31.9l-5.7-.3-5.8-.3-.8-5.5c-.4-3-.6-46.6-.5-96.8.3-102.2-.4-93.2 8-93.2h4.8v-32l-24.7.2-24.6.3-33.3 50.9c-18.3 28-33.8 51.4-34.4 52-1 .8-1.1-7.1-.8-34.2.5-39.8-.1-37.2 8.5-37.2h5.3v-32h-66zm192 0v16h4.8c8.4 0 7.7-9.2 8 94.7.1 51-.1 94.6-.6 96.8l-.8 4-5.7.3-5.7.3V628h66v-32h-5.5c-4.3 0-5.6-.4-6.5-2-.6-1.2-1-14.7-1-37.2v-35.3l9-4.3c5-2.3 9.3-4.1 9.7-4 1.2.3 32.3 77.9 32.3 80.5 0 2-.5 2.3-4.5 2.3h-4.5v32h70v-32h-3.8c-7.1 0-7.2 0-33.6-62.2l-21.5-50.8 6-8.2a273 273 0 0 0 26.8-54.2c6.9-18.8 8.1-20.6 14.5-20.6h4.6v-32h-68v32h4.4c7 0 7.6.5 7.6 6.4 0 14.6-10.3 33.3-26.4 48.3-7 6.5-18.6 14.3-21.3 14.3-1 0-1.3-7-1.3-33 0-37.5-.3-36 8-36h5v-32h-66zm339 0v16h4.8c2.6 0 5.3.5 6 1.2 1.7 1.7 1.7 191.9 0 193.6-.7.7-3.4 1.2-6 1.2h-4.8v32h66v-32h-5.2c-9 0-8.3 3.5-8.3-44.2v-42.3l29.3-.3 29.2-.2v41.6a401 401 0 0 1-1 43.5c-.9 1.5-2.2 1.9-6.5 1.9h-5.5v32h66v-31.9l-5.7-.3-5.8-.3-.8-7c-.4-3.9-.6-47.4-.5-96.8.3-100.5-.4-91.7 8-91.7h4.8v-32h-66v32h4.6c8.9 0 8.4-1.8 8.4 30.6V459l-29.2-.2-29.3-.3v-28.3c.1-32-.4-30.2 8.3-30.2h5.2v-32h-66zm185 24.5V447h12c9 0 12-.3 12-1.2a107 107 0 0 1 3.2-21.2c1.8-3.4 2.6-3.6 16.6-3.6h13.2l-.2 87.5c-.3 98 .4 89.5-8 89.5h-4.8v32h66v-32h-4.7c-8.5 0-7.8 8.6-8-89.5l-.4-87.5h14.5c11.9 0 14.6.3 15.7 1.6a36 36 0 0 1 1.7 13l.5 11.4h24.7v-77h-154zm-994 2.9c-16.1 5.7-27.5 30.5-31 67.6-4.7 47.6 7.9 92.9 28.8 104.3 10.7 5.8 21.6 4.2 30.8-4.4 30-28.4 29.7-128.4-.4-160.3a27 27 0 0 0-28.3-7.2m177.4 5.6c-8.2 4-15.4 12-20.3 22.2l-4 8.2V583h5.3a63 63 0 0 0 58.8-38.5c11.1-23.6 13.8-61.8 6.4-91-8-31.6-26.6-46.3-46.2-36.5M2027 496v81h14.3c8.4 0 17-.6 21-1.5 18.4-3.9 31.1-17.1 37-38.4 3.1-12 2.9-35-.7-48.6a102 102 0 0 0-42-58.7c-7.1-5-25.7-14.8-28.3-14.8-1 0-1.3 14-1.3 81m-486.8-8.4c-26.6 7.7-43.3 22.7-48.7 43.9-2 7.6-2 21.4 0 29 2.8 10.9 11 20.3 19.4 22 10.4 2.2 24.5-9.1 34.5-27.6l3.6-6.7-.2-31.5-.3-31.5zm-873.1 2c-25.4 7.5-42.3 22.8-47.6 43a73 73 0 0 0 .4 31.3 40 40 0 0 0 11.4 17.4c12.8 8.4 28.9-1 41.6-24.3l4-7.5v-31.2c0-17.2-.2-31.3-.6-31.2-.5 0-4.6 1.1-9.2 2.5"/></svg>